<svg xmlns="http://www.w3.org/2000/svg" width="307.983" height="245.069" viewBox="0 0 307.983 245.069">
  <g id="Group_79" data-name="Group 79" transform="translate(0 0)">
    <g id="Symbols" transform="translate(119.718)" opacity="0.67">
      <g id="Scene_Plants" data-name="Scene/Plants" transform="translate(0 0)">
        <path id="Leaf-Bottom" d="M99.453,134.877c2.725,1.178,6.185-.536,4.526-3.939-1.778-3.645-7.629-3.384-10.929-3.137.332,0,1.575,3.363,1.967,3.86A11.214,11.214,0,0,0,99.453,134.877Zm-34.1-65.234C64.651,69.1,65.294,69.592,65.352,69.643Zm35.776,48.238a3.156,3.156,0,0,0,.112-4.724c-1.6-1.611-4.357-1.4-6.409-1.132-.928.123-5.884.783-4.662,1.535a4.022,4.022,0,0,1-.5-.205q-.2-.59-.406-1.174c.028-.018.053-.038.083-.057-.033.016-.056.034-.085.05a45.732,45.732,0,0,0-5.72-10.972,10.785,10.785,0,0,0,2.612.553c2.614.193,7.969-2.111,4.884-5.416-2.958-3.168-7.107.615-10.242,1.271A147.945,147.945,0,0,0,70.166,85.792a.845.845,0,0,0,.494-.458,20.822,20.822,0,0,0,4.323,1.811c1.919.3,5.823.343,7.168-1.431,1.655-2.181-.325-3.778-2.43-4.07-3.053-.423-6.931,1.261-9.787,2.411a.962.962,0,0,0-.9.353l-.188.072c-3.793-3.756-7.718-7.374-11.615-10.911h.12a10.076,10.076,0,0,0,3.2,1.262c2.63.5,5.685.34,7.694-1.65s2.573-5.292.292-7.279c-4.568-3.977-10.47,5.947-12.641,6.462-3.958-3.553-8.119-6.849-12.339-10.071a7.221,7.221,0,0,0,1.431.214c3.981.171,13.025-5.172,7.913-9.7-4.455-3.942-8.938,4.33-12.206,7.311-3.975-3-7.969-5.978-11.862-9.086A10.841,10.841,0,0,0,35,50.675c2.215-.8,5.758-2.689,4.176-5.653-1.609-3.014-5.9-1.38-8.116-.279-1.211.6-3.6,2.536-5.742,3.411A74.8,74.8,0,0,1,9.346,29.888,65.461,65.461,0,0,1,3.02,15.8c-1-3.139-2.908-8.4-2.8-12.557C-.9,11.618,2.437,21.428,5.86,28.679A62.389,62.389,0,0,0,18.669,46.239c-1.034,3.756-11.085,9.621-4.73,12.727,3.375,1.641,6.576-1.543,7.126-4.768.378-2.216-.517-4.928-1.424-7.012q2.437,2.341,5.036,4.515c2.388,2,4.829,3.942,7.29,5.854-3.689,3.849-6.815,14.461-1.523,15.893,7.814,2.107,3.37-11.913,2.694-14.549a.42.42,0,0,0-.351.154c.031-.246.067-.51.114-.776,4.709,3.639,9.482,7.2,14.112,10.933a20.325,20.325,0,0,0-1.424,2.1,22.752,22.752,0,0,0-2.756,4.5c-1.111,2.562-2.1,6.606,1.268,7.9,3.661,1.413,5.125-3.18,5.01-5.868a35.685,35.685,0,0,0-1.038-5.4c-.112-.564.071-3.14-.645-2a5.43,5.43,0,0,0-.024-.91q1.247,1.011,2.478,2.044a.965.965,0,0,0-.053.312.93.93,0,0,0,1.375.805q1.627,1.392,3.217,2.829c2.242,2.036,4.518,4.132,6.782,6.276-.445.424-.23.968-.643,1.416s-1.256.725-1.747,1.145a12.38,12.38,0,0,0-2.92,4.016c-1.15,2.412-2.536,7.419,1.24,8.342,3.892.954,5.589-3.885,5.681-6.859a75.637,75.637,0,0,0-1.11-7.584c4.189,3.985,8.322,8.131,12.091,12.372-1.072.066-4,2.423-4.581,3.054-1.423,1.541-3.638,4.9-.919,6.47,2.418,1.394,5.184-.954,6.072-3.141a30.009,30.009,0,0,0,.523-5.133c1.562,1.8,3.058,3.615,4.456,5.441q1.4,1.821,2.637,3.744a1.758,1.758,0,0,0-.489.535c-3.865.866-8.518,7.211-3.826,9.088,2.234.892,4.49-1.31,5.469-3.067a22.693,22.693,0,0,0,.679-3.523,73.083,73.083,0,0,1,5.834,13.481.852.852,0,0,0-.623.825,11.629,11.629,0,0,0-4.5,4.3c-.754,1.332-2.077,4.355.372,4.944,3.189.767,4.909-4.132,5.043-6.508.016-.276-.028-1.073-.076-1.8a1.056,1.056,0,0,0,.327-.023c.875,2.9,1.607,5.848,2.221,8.806-1.685.642-1.51,9.657-.3,10.878,2.7,2.735,4.282-1.5,4.031-3.687a14.481,14.481,0,0,0-3.093-6.875c-.161-.213-.118-.2-.14.105a.624.624,0,0,0-.166-.338,39.217,39.217,0,0,0-.062-3.962,91.878,91.878,0,0,0-1.718-10.25q-.278-1.229-.615-2.436a19.971,19.971,0,0,0,4.094,2.334C96.375,118.651,99.329,119.412,101.128,117.881ZM0,3.246A9.714,9.714,0,0,1,.541,0,25.327,25.327,0,0,0,0,3.246Z" transform="matrix(-0.999, -0.052, 0.052, -0.999, 104.268, 149.171)" fill="#f2f2f2"/>
        <g id="Plant-Right" transform="translate(49.161 28.342)" opacity="0.7">
          <path id="Leaf-Me-Alone_" data-name="Leaf-Me-Alone!" d="M36.195,128.193c-7.385-.391-16.019-5.633-15.963-13.7.041-5.861.825-11.627.553-17.513a47.16,47.16,0,0,0-2.829-13.735c-1.528-4.261-5.218-8.139-5.817-12.581a18.686,18.686,0,0,1,1.613-9.277c1.472-3.164.846-2.968-1.11-5.958C8.808,49.568,5.428,43.616,3.3,36.874c-3.059-9.71-4.564-20.843-2-30.851C1.633,4.752,2.345.143,4.157.007c2.023-.153.817,2.4.621,3.243-1.249,5.389-2.351,10.1-2.119,15.731.895,21.728,14.764,37.44,22.85,56.651.451.994,1.377,3.346,2.028,4.9,1.029,2.457,1.845,7.011,3.387,8.914,2.905,3.586.606-3.251.1-4.562-.634-1.659-1.338-3.426-2.013-4.893-3.078-6.792-6.529-14.216-9.709-21.218C36.459,56.719,46.139,78.1,49.242,91.808c2.557,11.3,4.308,37.265-13.048,36.385" transform="matrix(-0.995, 0.105, -0.105, -0.995, 63.977, 186.128)" fill="#69a1ac"/>
          <path id="Leaf-Me-Alone_2" data-name="Leaf-Me-Alone!" d="M164.075,78.066c-12.346.98-20.273,9.127-23.963,20.522-1.989,6.141-2.217,12.449-3.322,18.76-1.662,9.494-5.239,16.69-12.23,23.455a23.6,23.6,0,0,0-4.895,6.547,27.89,27.89,0,0,0-5.652,8.076c-1.839,4.06-2.36,8.931-.236,12.978a13.3,13.3,0,0,0,3.472,4.265,83.584,83.584,0,0,0-8.224,37.541c.207,7.772.586,15.549,1.03,23.312.119,2.084.8,5.527,1.817,2.031.933-3.2-.237-8.218-.345-11.558-.527-16.273-.977-31.07,5.722-46.274.7-1.594,1.448-3.175,2.223-4.742a1.548,1.548,0,0,0,.131-.089c.029.023.056.047.086.07.049-.089.117-.194.2-.311a4.231,4.231,0,0,0,.6-.843,6.122,6.122,0,0,0,1.27-2.321s0-.01,0-.015A219.123,219.123,0,0,1,135.5,150.032c-.036.046,5.263-7.169,4.444-3.179-.395,1.923-4.293,5.585-5.867,7.621A189.786,189.786,0,0,0,123.11,170.3a7.991,7.991,0,0,0-1.57,2.514c-.258.487-.5.978-.735,1.405,12.041,3.978,21.407-4.035,27.794-13.355l.022-.034a40.51,40.51,0,0,1,6.422-7.168c4.149-3.4,8.594-4,13.486-5.668,13.343-4.559,19.016-21.851,20.817-34.682,2.033-14.475-7.91-36.672-25.27-35.245" transform="translate(-50.503 -36.012)" fill="#89c5cc"/>
          <path id="Leaf-Me-Alone_3" data-name="Leaf-Me-Alone!" d="M53.064,1.234c-14.384,11.3-22.993,28.56-30.187,44.915-8.034,18.267-14.29,37.084-17.205,56.84-1.915,12.98-4.106,26-5.171,39.089a139.452,139.452,0,0,0-.478,13.991c.008.383.211,10.793,2.108,8.641,1.079-1.224-.191-10.8-.169-12.358a200.2,200.2,0,0,1,2.371-26.232c2.1-14.319,3.683-28.636,7.142-42.709a48.822,48.822,0,0,1,1.8-6.331c.849-2.142.029-1.27,1.9-1.9,1.822-.615,3.908-.2,5.823-1.019,7.6-3.263,12.716-13.667,16.51-20.433A138.438,138.438,0,0,0,47.775,29.138a181.9,181.9,0,0,0,5.084-18.689,49.963,49.963,0,0,1,1.41-6.042,13.939,13.939,0,0,0,.9-1.87c.1-1.01-.423-1.686-.354-2.537q-.888.6-1.75,1.234" transform="translate(36.464 7.679) rotate(-8)" fill="#89c5cc"/>
          <path id="Base" d="M38,328a39.492,39.492,0,1,0,78.984,0" transform="translate(-17.914 -150.765)" fill="#89c5cc"/>
          <path id="Leaf-Me-Alone_4" data-name="Leaf-Me-Alone!" d="M115.087,298.749H113a70.061,70.061,0,0,1,.774-7.821c1.674-9.9,6.908-24.445,18.388-26.052a29.655,29.655,0,0,1,3.869.041,6.97,6.97,0,0,1,2.952-.872c9.774-.721,20.689,7.164,25.4,15.371,3.8,6.616,3.16,15.3.813,22.333-1.572,4.706-5,11.415-10.725,11.48-7.158.082-7.5-8.766-7.642-13.937-.184-6.877-1.053-12.866-6.471-17.553-1.263-1.092-2.643-2.053-3.918-3.129-2-1.685-4.2-3.411-4.462-6.2-.355-3.846,1.816-4.539,5.131-3.824.565.122,6.258,2.676,5.415.657a3.755,3.755,0,0,0-2.384-1.472c-3.07-.334-6.731-.721-7.784-.49C121,269.774,116.58,285.507,115.405,295.5,115.279,296.582,115.176,297.665,115.087,298.749Z" transform="translate(-52.339 -121.388)" fill="#69a1ac"/>
        </g>
      </g>
    </g>
    <g id="humaaans_sitting-8" data-name="humaaans/sitting-8" transform="translate(0 11.415)">
      <g id="A-Human_Sitting" data-name="A-Human/Sitting" transform="translate(200.821 228.827) rotate(180)">
        <g id="Head_Front_Short-2" data-name="Head/Front/Short-2" transform="translate(53.962 174.182)">
          <g id="Head" transform="translate(2.732)">
            <path id="Path_76" data-name="Path 76" d="M5.644,26.3C2.5,30,.366,34.527.722,39.6,1.748,54.218,22.1,51,26.054,43.625s3.488-26.092-1.628-27.411c-2.04-.526-6.386.762-10.809,3.428L16.394,0H0Z" fill="#915b3c"/>
          </g>
          <path id="Hair" d="M7.116,0C5.059,9.154-.8,15.394.092,19.485a6.205,6.205,0,0,0,4.772,5.089q2.005,8.111,12.933,6.9c10.928-1.211,17.6-5.75,14.718-15.736-2.648,0-5.844.958-10.264-.683q-2.1-.781-3.009-4.843h-2q-2.908,4.821-5.734,3.543T10.225,7.547L9.241,0Z" transform="translate(0 23.014)" fill="#191847"/>
        </g>
        <g id="Bottom_Sitting_Baggy-Pants" data-name="Bottom/Sitting/Baggy-Pants" transform="translate(0 0)">
          <g id="Objects_Seat_Cube-2" data-name="Objects/Seat/Cube-2" transform="translate(0 4.098)">
            <path id="Seat" d="M10.929,84.7H89.482a10.929,10.929,0,0,0,10.929-10.929V10.929A10.929,10.929,0,0,0,89.482,0H10.929A10.929,10.929,0,0,0,0,10.929V73.771A10.929,10.929,0,0,0,10.929,84.7ZM21.858,65.574a2.732,2.732,0,0,1-2.732-2.732V21.858a2.732,2.732,0,0,1,2.732-2.732H78.553a2.732,2.732,0,0,1,2.732,2.732V62.842a2.732,2.732,0,0,1-2.732,2.732Z" fill="#c5cfd6"/>
          </g>
          <path id="LegLower" d="M45.191,0Q24.99,24.668,17.854,36.575C9.709,50.168,3.042,62.263.938,66.883-4.079,77.9,12.488,83.059,16.237,77.92Q24.75,66.254,52.6,4.5Z" transform="translate(122.952 7.514)" fill="#b28b67"/>
          <path id="LegLower-2" data-name="LegLower" d="M25.791,0,.728,63.09C-4.633,74.591,21.254,82.151,25.194,76.8c8.944-12.151,30.2-60.087,32.867-63.707Z" transform="translate(114.755 12.295)" fill="#2f3676"/>
          <g id="Lower-Leg" transform="matrix(0.777, -0.629, 0.629, 0.777, 70.543, 22.892)">
            <path id="LegLower-3" data-name="LegLower" d="M1.233,3.643C.545,12.25-.733,42.046.546,55.837.913,59.8,1.3,63.632,1.69,67.226c1.159,10.684,20.97,10.346,19.4.2C17.168,42.144,10.272,6.718,9.778,3.657,9.085-.633,1.665-1.766,1.233,3.643Z" transform="translate(0 0)" fill="#915b3c"/>
          </g>
          <g id="Accessories_Shoe_Flat-Sneaker" data-name="Accessories/Shoe/Flat-Sneaker" transform="matrix(0.866, -0.5, 0.5, 0.866, 68.957, 20.102)">
            <path id="shoe" d="M1.146,9.972A14.667,14.667,0,0,1,0,5.392,34.274,34.274,0,0,1,.616,0H39.142q1.5,4.965-1.734,5.361t-5.376.715L14.126,14.058a.683.683,0,0,1-.9-.346l-.008-.018L12.065,10.9A12.284,12.284,0,0,0,7.2,9.505a11.024,11.024,0,0,0-4.2,1.229h0a1.366,1.366,0,0,1-1.811-.673Q1.163,10.017,1.146,9.972Z" transform="translate(0 0)" fill="#e4e4e4"/>
          </g>
          <g id="Accessories_Shoe_Flat-Sneaker-2" data-name="Accessories/Shoe/Flat-Sneaker" transform="translate(161.204)">
            <path id="shoe-2" data-name="shoe" d="M1.146,9.971A14.667,14.667,0,0,1,0,5.392,34.274,34.274,0,0,1,.616,0H39.142q1.5,4.965-1.734,5.361t-5.376.715L14.126,14.058a.683.683,0,0,1-.9-.346l-.008-.018L12.065,10.9A12.284,12.284,0,0,0,7.2,9.505a11.024,11.024,0,0,0-4.2,1.229h0a1.366,1.366,0,0,1-1.811-.673Q1.163,10.017,1.146,9.971Z" fill="#e4e4e4"/>
          </g>
          <path id="Leg-and-Butt" d="M65.369,53.6Q34.122,58.686,23.51,60.557C3.343,64.113-2.537,74.965.939,98.642H38.1q7.376-2.13,61.636-26.345c6.508-3.231,5.3-12.757,4.107-15.9q-.073-.192-32.916-56.4l-30.4,19.364,24.9,31.95Q66.412,53.3,65.369,53.6Z" transform="translate(41.095 18.639)" fill="#5c63ab"/>
        </g>
        <g id="Body_Hoodie" data-name="Body/Hoodie" transform="translate(2.16 65.468)">
          <path id="Skin" d="M106.981,60.755l21.788-16A58.654,58.654,0,0,0,143.581,38.8c.936-.853,2.068-2.581-1.816-2.283s-7.983.439-8.519-.887,1.815-2.909.732-4.7q-1.084-1.788-10.237,8.965l-21.576,8.947ZM23.323,60.2,37.6,60.147Q24.377,17.468,23.323,14.857c-1.581-3.917,1.764-9.883,3.194-13.088C21.859-.316,22.356,7.4,16.479,4.67,11.115,2.174,7.035-2.347.838,1.477c-.762.47-1.6,2.24.42,3.623C6.284,8.546,13.526,14.578,14.5,16.563Q16.507,20.624,23.323,60.2Z" fill="#915b3c"/>
          <path id="Coat-Back" d="M0,76.271,5.8,77.8C29.277,60.846,41.414,25.4,69.853,8.548L64.111,0C17.184,1.686,1.811,44.873,0,76.271Z" transform="translate(57.241 44.118) rotate(-5)" fill="#e87613"/>
          <path id="Shirt" d="M0,0H52.262c2.389,0,1.939,3.448,1.593,5.189-3.984,20.082-19.537,41.73-19.537,70.317L19.243,77.87C6.774,57.816,2.462,33.126,0,0Z" transform="translate(38.141 45.872)" fill="#dde3e9"/>
          <path id="Coat-Front" d="M24.418,86.846a8.621,8.621,0,0,0-5.2,4.4c-5.51,9.942-3.52,15.416,2.368,17.215s11.139-1.907,20.521-1.907a9.45,9.45,0,0,0,1.4-.1l4.719-.269q20.31-68.833,11.2-91.849H18.3A140.292,140.292,0,0,0,11.3,0H.091Q-1.491,51.161,24.418,86.846Z" transform="translate(14.142 17.184)" fill="#ff9b21"/>
          <path id="Shade" d="M8.957,23.567Q10.9,7.331,15.265,0H0Q4.264,9.944,8.957,23.567Z" transform="translate(32.438 31.528)" fill="rgba(0,0,0,0.1)"/>
        </g>
      </g>
    </g>
  </g>
</svg>
