<svg id="Group_299" data-name="Group 299" xmlns="http://www.w3.org/2000/svg" width="40" height="40" viewBox="0 0 40 40">
  <path id="Path_1508" data-name="Path 1508" d="M20,0A20,20,0,1,1,0,20,20,20,0,0,1,20,0Z" fill="#e8b732"/>
  <path id="Icon_awesome-money-bill-wave-alt" data-name="Icon awesome-money-bill-wave-alt" d="M20.773,3A9.9,9.9,0,0,0,16.88,2.25c-4.119,0-8.238,2.085-12.357,2.085a10.146,10.146,0,0,1-3.1-.459,1.143,1.143,0,0,0-.346-.054A1.064,1.064,0,0,0,0,4.886V15.5a1.063,1.063,0,0,0,.63.985,9.9,9.9,0,0,0,3.893.751c4.119,0,8.238-2.085,12.357-2.085a10.146,10.146,0,0,1,3.1.459,1.143,1.143,0,0,0,.346.054A1.064,1.064,0,0,0,21.4,14.6V3.987A1.065,1.065,0,0,0,20.773,3ZM10.7,12.951a2.98,2.98,0,0,1-2.675-3.21A2.98,2.98,0,0,1,10.7,6.531a2.98,2.98,0,0,1,2.675,3.21A2.98,2.98,0,0,1,10.7,12.951Z" transform="translate(9.299 10.259)" fill="#fff"/>
</svg>
